<svg viewBox="0 0 880 300" width="100%" role="img" aria-label="SNDK 2026 price with signals" style="font-family:var(--mono);font-size:10px">
<line x1="52" x2="864" y1="266.0" y2="266.0" stroke="var(--grid)" stroke-width="1"/><text x="46" y="269.0" text-anchor="end" fill="var(--muted)">218</text>
<line x1="52" x2="864" y1="182.0" y2="182.0" stroke="var(--grid)" stroke-width="1"/><text x="46" y="185.0" text-anchor="end" fill="var(--muted)">939</text>
<line x1="52" x2="864" y1="98.0" y2="98.0" stroke="var(--grid)" stroke-width="1"/><text x="46" y="101.0" text-anchor="end" fill="var(--muted)">1,660</text>
<line x1="52" x2="864" y1="14.0" y2="14.0" stroke="var(--grid)" stroke-width="1"/><text x="46" y="17.0" text-anchor="end" fill="var(--muted)">2,382</text>
<line x1="52.0" x2="52.0" y1="14" y2="266" stroke="var(--grid)"/><text x="55.0" y="280" fill="var(--muted)">Jan</text>
<line x1="156.1" x2="156.1" y1="14" y2="266" stroke="var(--grid)"/><text x="159.1" y="280" fill="var(--muted)">Feb</text>
<line x1="255.0" x2="255.0" y1="14" y2="266" stroke="var(--grid)"/><text x="258.0" y="280" fill="var(--muted)">Mar</text>
<line x1="369.5" x2="369.5" y1="14" y2="266" stroke="var(--grid)"/><text x="372.5" y="280" fill="var(--muted)">Apr</text>
<line x1="478.8" x2="478.8" y1="14" y2="266" stroke="var(--grid)"/><text x="481.8" y="280" fill="var(--muted)">May</text>
<line x1="582.9" x2="582.9" y1="14" y2="266" stroke="var(--grid)"/><text x="585.9" y="280" fill="var(--muted)">Jun</text>
<line x1="692.2" x2="692.2" y1="14" y2="266" stroke="var(--grid)"/><text x="695.2" y="280" fill="var(--muted)">Jul</text>
<line x1="806.7" x2="806.7" y1="14" y2="266" stroke="var(--grid)"/><text x="809.7" y="280" fill="var(--muted)">Aug</text>
<line x1="52.0" x2="52.0" y1="14" y2="266" stroke="var(--leg)" stroke-dasharray="3,3" stroke-width="1.2"/>
<line x1="213.4" x2="213.4" y1="14" y2="266" stroke="var(--leg)" stroke-dasharray="3,3" stroke-width="1.2"/>
<line x1="260.2" x2="260.2" y1="14" y2="266" stroke="var(--leg)" stroke-dasharray="3,3" stroke-width="1.2"/>
<line x1="327.9" x2="327.9" y1="14" y2="266" stroke="var(--leg)" stroke-dasharray="3,3" stroke-width="1.2"/>
<line x1="515.3" x2="515.3" y1="14" y2="266" stroke="var(--leg)" stroke-dasharray="3,3" stroke-width="1.2"/>
<line x1="754.7" x2="754.7" y1="14" y2="266" stroke="var(--leg)" stroke-dasharray="3,3" stroke-width="1.2"/>
<line x1="780.7" x2="780.7" y1="14" y2="266" stroke="var(--leg)" stroke-dasharray="3,3" stroke-width="1.2"/>
<path d="M52.0,265.5 L57.2,265.2 L62.4,264.8 L67.6,264.4 L72.8,264.0 L78.0,263.5 L83.2,263.1 L88.4,262.7 L93.6,262.2 L98.8,261.7 L104.1,261.2 L109.3,260.7 L114.5,260.0 L119.7,259.4 L124.9,258.9 L130.1,258.4 L135.3,258.0 L140.5,257.3 L145.7,256.6 L150.9,255.9 L156.1,254.9 L161.3,253.9 L166.5,253.0 L171.7,252.1 L176.9,251.3 L182.1,250.4 L187.3,249.6 L192.5,248.8 L197.7,247.8 L202.9,246.8 L208.2,245.9 L213.4,245.0 L218.6,244.1 L223.8,243.1 L229.0,242.0 L234.2,241.1 L239.4,240.2 L244.6,239.2 L249.8,238.1 L255.0,237.2 L260.2,236.4 L265.4,235.5 L270.6,234.7 L275.8,234.0 L281.0,233.2 L286.2,232.4 L291.4,231.4 L296.6,230.6 L301.8,229.6 L307.1,228.5 L312.3,227.5 L317.5,226.3 L322.7,225.4 L327.9,224.5 L333.1,223.7 L338.3,222.9 L343.5,222.2 L348.7,221.7 L353.9,221.2 L359.1,220.8 L364.3,220.3 L369.5,219.8 L374.7,219.3 L379.9,218.8 L385.1,218.2 L390.3,217.5 L395.5,216.6 L400.7,215.9 L405.9,214.9 L411.2,214.1 L416.4,213.5 L421.6,213.0 L426.8,212.2 L432.0,211.4 L437.2,210.7 L442.4,209.8 L447.6,208.9 L452.8,208.0 L458.0,207.0 L463.2,206.1 L468.4,205.0 L473.6,203.8 L478.8,202.5 L484.0,201.1 L489.2,199.4 L494.4,197.6 L499.6,195.9 L504.8,193.8 L510.1,191.7 L515.3,189.8 L520.5,187.7 L525.7,185.9 L530.9,183.9 L536.1,182.0 L541.3,180.2 L546.5,178.4 L551.7,176.3 L556.9,174.3 L562.1,172.2 L567.3,170.1 L572.5,167.9 L577.7,165.8 L582.9,163.4 L588.1,161.1 L593.3,158.5 L598.5,156.0 L603.7,154.0 L608.9,151.5 L614.2,149.1 L619.4,146.6 L624.6,143.7 L629.8,140.7 L635.0,137.5 L640.2,134.5 L645.4,131.6 L650.6,128.3 L655.8,125.0 L661.0,122.4 L666.2,120.2 L671.4,117.0 L676.6,114.2 L681.8,111.5 L687.0,108.4 L692.2,105.8 L697.4,103.8 L702.6,102.0 L707.8,100.4 L713.1,98.7 L718.3,96.9 L723.5,94.8 L728.7,93.3 L733.9,91.8 L739.1,90.8 L744.3,90.4 L749.5,90.6 L754.7,90.6 L759.9,90.0 L765.1,89.9 L770.3,89.8 L775.5,89.8 L780.7,90.2 L785.9,90.9 L791.1,91.8 L796.3,91.9 L801.5,92.3 L806.7,92.6 L811.9,92.8 L817.2,93.1 L822.4,93.9 L827.6,94.8 L832.8,95.7 L838.0,96.7 L843.2,97.7 L848.4,98.1 L853.6,98.6 L858.8,98.5 L864.0,98.4" fill="none" stroke="var(--sma)" stroke-width="1.2"/>
<path d="M52.0,264.0 L57.2,263.6 L62.4,262.4 L67.6,261.3 L72.8,260.5 L78.0,259.3 L83.2,258.1 L88.4,257.0 L93.6,256.0 L98.8,254.9 L104.1,253.8 L109.3,252.5 L114.5,250.7 L119.7,249.1 L124.9,247.9 L130.1,246.9 L135.3,245.8 L140.5,244.4 L145.7,242.9 L150.9,241.2 L156.1,238.7 L161.3,236.2 L166.5,235.0 L171.7,234.0 L176.9,232.9 L182.1,232.0 L187.3,231.7 L192.5,230.8 L197.7,229.6 L202.9,228.6 L208.2,228.0 L213.4,227.4 L218.6,226.7 L223.8,225.7 L229.0,224.6 L234.2,223.9 L239.4,223.3 L244.6,222.6 L249.8,222.1 L255.0,221.9 L260.2,222.2 L265.4,222.2 L270.6,222.5 L275.8,223.1 L281.0,223.1 L286.2,222.8 L291.4,222.1 L296.6,221.8 L301.8,221.1 L307.1,220.1 L312.3,218.9 L317.5,217.5 L322.7,216.1 L327.9,215.4 L333.1,214.9 L338.3,214.4 L343.5,214.2 L348.7,214.8 L353.9,215.3 L359.1,216.1 L364.3,216.2 L369.5,215.7 L374.7,215.2 L379.9,214.4 L385.1,213.9 L390.3,212.7 L395.5,210.8 L400.7,209.1 L405.9,206.5 L411.2,204.2 L416.4,202.7 L421.6,201.0 L426.8,199.5 L432.0,198.2 L437.2,197.1 L442.4,195.3 L447.6,194.2 L452.8,192.5 L458.0,190.2 L463.2,188.8 L468.4,186.8 L473.6,184.7 L478.8,181.8 L484.0,178.5 L489.2,173.9 L494.4,169.6 L499.6,166.5 L504.8,161.3 L510.1,156.8 L515.3,153.6 L520.5,150.8 L525.7,149.0 L530.9,147.0 L536.1,146.0 L541.3,144.6 L546.5,143.2 L551.7,140.3 L556.9,138.4 L562.1,135.5 L567.3,132.8 L572.5,129.9 L577.7,126.6 L582.9,122.9 L588.1,120.1 L593.3,116.2 L598.5,113.5 L603.7,113.2 L608.9,112.0 L614.2,110.9 L619.4,109.9 L624.6,106.5 L629.8,102.3 L635.0,97.2 L640.2,93.8 L645.4,91.0 L650.6,86.1 L655.8,80.7 L661.0,79.0 L666.2,78.1 L671.4,72.7 L676.6,70.5 L681.8,68.8 L687.0,65.0 L692.2,64.1 L697.4,66.3 L702.6,68.3 L707.8,71.4 L713.1,73.1 L718.3,73.3 L723.5,72.8 L728.7,75.0 L733.9,76.0 L739.1,78.5 L744.3,82.9 L749.5,87.5 L754.7,91.3 L759.9,92.7 L765.1,93.8 L770.3,94.7 L775.5,97.4 L780.7,101.5 L785.9,107.2 L791.1,113.1 L796.3,115.8 L801.5,118.9 L806.7,120.9 L811.9,121.3 L817.2,122.5 L822.4,124.5 L827.6,126.8 L832.8,128.7 L838.0,130.0 L843.2,130.5 L848.4,128.9 L853.6,126.3 L858.8,122.4 L864.0,120.7" fill="none" stroke="var(--ema)" stroke-width="1.2"/>
<path d="M52.0,259.3 L57.2,259.4 L62.4,250.6 L67.6,250.2 L72.8,252.4 L78.0,247.4 L83.2,246.0 L88.4,246.0 L93.6,246.2 L98.8,243.7 L104.1,243.2 L109.3,238.6 L114.5,233.0 L119.7,232.7 L124.9,236.2 L130.1,236.5 L135.3,235.3 L140.5,229.9 L145.7,228.6 L150.9,224.3 L156.1,213.9 L161.3,210.4 L166.5,223.3 L171.7,224.3 L176.9,221.7 L182.1,223.4 L187.3,228.3 L192.5,221.6 L197.7,218.0 L202.9,218.4 L208.2,222.6 L213.4,221.4 L218.6,219.0 L223.8,215.7 L229.0,213.7 L234.2,217.0 L239.4,217.7 L244.6,215.4 L249.8,217.4 L255.0,219.3 L260.2,225.5 L265.4,221.6 L270.6,225.5 L275.8,230.0 L281.0,222.8 L286.2,219.3 L291.4,215.0 L296.6,219.3 L301.8,214.3 L307.1,209.4 L312.3,207.5 L317.5,203.6 L322.7,201.4 L327.9,208.7 L333.1,209.6 L338.3,209.6 L343.5,212.4 L348.7,221.1 L353.9,219.6 L359.1,224.7 L364.3,217.4 L369.5,210.7 L374.7,209.7 L379.9,207.0 L385.1,208.6 L390.3,200.4 L395.5,192.2 L400.7,192.2 L405.9,180.4 L411.2,181.4 L416.4,187.5 L421.6,184.3 L426.8,184.1 L432.0,185.0 L437.2,186.1 L442.4,177.3 L447.6,182.8 L452.8,176.1 L458.0,166.7 L463.2,174.6 L468.4,167.4 L473.6,163.7 L478.8,153.1 L484.0,145.1 L489.2,127.6 L494.4,127.2 L499.6,135.3 L504.8,109.4 L510.1,111.1 L515.3,122.3 L520.5,122.8 L525.7,130.3 L530.9,127.4 L536.1,136.1 L541.3,130.3 L546.5,129.2 L551.7,111.8 L556.9,119.2 L562.1,106.3 L567.3,106.2 L572.5,100.2 L577.7,94.0 L582.9,86.2 L588.1,91.5 L593.3,78.1 L598.5,86.4 L603.7,109.8 L608.9,100.1 L614.2,99.6 L619.4,100.0 L624.6,72.2 L629.8,60.8 L635.0,45.9 L640.2,59.4 L645.4,63.2 L650.6,36.9 L655.8,26.6 L661.0,62.7 L666.2,68.4 L671.4,19.4 L676.6,47.9 L681.8,52.6 L687.0,26.6 L692.2,54.7 L697.4,88.1 L702.6,88.2 L707.8,103.0 L713.1,90.2 L718.3,75.0 L723.5,68.2 L728.7,96.4 L733.9,86.7 L739.1,103.3 L744.3,127.0 L749.5,133.6 L754.7,129.4 L759.9,106.3 L765.1,105.1 L770.3,103.8 L775.5,124.1 L780.7,142.5 L785.9,163.7 L791.1,173.1 L796.3,142.3 L801.5,149.9 L806.7,141.4 L811.9,125.1 L817.2,134.1 L822.4,144.8 L827.6,150.2 L832.8,147.2 L838.0,143.3 L843.2,134.8 L848.4,113.4 L853.6,100.2 L858.8,83.3 L864.0,103.8" fill="none" stroke="var(--ink)" stroke-width="1.6"/>
<circle cx="52.0" cy="255.3" r="2.2" fill="var(--nh)"/>
<text x="52.0" y="241.3" text-anchor="middle" fill="var(--sp)" font-size="10">◇</text>
<circle cx="62.4" cy="246.6" r="2.2" fill="var(--nh)"/>
<circle cx="67.6" cy="246.2" r="2.2" fill="var(--nh)"/>
<circle cx="78.0" cy="243.4" r="2.2" fill="var(--nh)"/>
<circle cx="83.2" cy="242.0" r="2.2" fill="var(--nh)"/>
<circle cx="88.4" cy="242.0" r="2.2" fill="var(--nh)"/>
<circle cx="98.8" cy="239.7" r="2.2" fill="var(--nh)"/>
<circle cx="104.1" cy="239.2" r="2.2" fill="var(--nh)"/>
<circle cx="109.3" cy="234.6" r="2.2" fill="var(--nh)"/>
<circle cx="114.5" cy="229.0" r="2.2" fill="var(--nh)"/>
<circle cx="140.5" cy="225.9" r="2.2" fill="var(--nh)"/>
<circle cx="145.7" cy="224.6" r="2.2" fill="var(--nh)"/>
<circle cx="150.9" cy="220.3" r="2.2" fill="var(--nh)"/>
<circle cx="156.1" cy="209.9" r="2.2" fill="var(--nh)"/>
<circle cx="161.3" cy="206.4" r="2.2" fill="var(--nh)"/>
<text x="223.8" y="197.7" text-anchor="middle" fill="var(--sp)" font-size="10">◇</text>
<text x="265.4" y="230.6" text-anchor="middle" fill="var(--xe)" font-size="10">▮</text>
<text x="281.0" y="231.8" text-anchor="middle" fill="var(--xe)" font-size="10">▮</text>
<circle cx="307.1" cy="205.4" r="2.2" fill="var(--nh)"/>
<text x="307.1" y="200.4" text-anchor="middle" fill="var(--acc)" font-size="10">▲</text>
<circle cx="312.3" cy="203.5" r="2.2" fill="var(--nh)"/>
<circle cx="317.5" cy="199.6" r="2.2" fill="var(--nh)"/>
<circle cx="322.7" cy="197.4" r="2.2" fill="var(--nh)"/>
<text x="333.1" y="218.6" text-anchor="middle" fill="var(--pb)" font-size="10">●</text>
<text x="338.3" y="218.6" text-anchor="middle" fill="var(--pb)" font-size="10">●</text>
<text x="369.5" y="219.7" text-anchor="middle" fill="var(--xe)" font-size="10">▮</text>
<text x="374.7" y="218.7" text-anchor="middle" fill="var(--pb)" font-size="10">●</text>
<text x="374.7" y="191.7" text-anchor="middle" fill="var(--sp)" font-size="10">◇</text>
<text x="385.1" y="217.6" text-anchor="middle" fill="var(--pb)" font-size="10">●</text>
<text x="390.3" y="182.4" text-anchor="middle" fill="var(--sp)" font-size="10">◇</text>
<circle cx="395.5" cy="188.2" r="2.2" fill="var(--nh)"/>
<circle cx="400.7" cy="188.2" r="2.2" fill="var(--nh)"/>
<circle cx="405.9" cy="176.4" r="2.2" fill="var(--nh)"/>
<circle cx="458.0" cy="162.7" r="2.2" fill="var(--nh)"/>
<circle cx="473.6" cy="159.7" r="2.2" fill="var(--nh)"/>
<circle cx="478.8" cy="149.1" r="2.2" fill="var(--nh)"/>
<circle cx="484.0" cy="141.1" r="2.2" fill="var(--nh)"/>
<circle cx="489.2" cy="123.6" r="2.2" fill="var(--nh)"/>
<circle cx="504.8" cy="105.4" r="2.2" fill="var(--nh)"/>
<circle cx="567.3" cy="102.2" r="2.2" fill="var(--nh)"/>
<circle cx="572.5" cy="96.2" r="2.2" fill="var(--nh)"/>
<text x="572.5" y="82.2" text-anchor="middle" fill="var(--sp)" font-size="10">◇</text>
<circle cx="577.7" cy="90.0" r="2.2" fill="var(--nh)"/>
<circle cx="582.9" cy="82.2" r="2.2" fill="var(--nh)"/>
<circle cx="593.3" cy="74.1" r="2.2" fill="var(--nh)"/>
<text x="608.9" y="82.1" text-anchor="middle" fill="var(--sp)" font-size="10">◇</text>
<text x="619.4" y="109.0" text-anchor="middle" fill="var(--pb)" font-size="10">●</text>
<circle cx="624.6" cy="68.2" r="2.2" fill="var(--nh)"/>
<circle cx="629.8" cy="56.8" r="2.2" fill="var(--nh)"/>
<circle cx="635.0" cy="41.9" r="2.2" fill="var(--nh)"/>
<circle cx="650.6" cy="32.9" r="2.2" fill="var(--nh)"/>
<circle cx="655.8" cy="22.6" r="2.2" fill="var(--nh)"/>
<text x="666.2" y="77.4" text-anchor="middle" fill="var(--pb)" font-size="10">●</text>
<circle cx="671.4" cy="15.4" r="2.2" fill="var(--nh)"/>
<text x="681.8" y="61.6" text-anchor="middle" fill="var(--pb)" font-size="10">●</text>
<text x="723.5" y="77.2" text-anchor="middle" fill="var(--xe)" font-size="10">▮</text>
<text x="848.4" y="122.4" text-anchor="middle" fill="var(--xe)" font-size="10">▮</text>
<circle cx="858.8" cy="79.3" r="2.2" fill="var(--nh)"/>
<text x="858.8" y="74.3" text-anchor="middle" fill="var(--acc)" font-size="10">▲</text>
</svg>