<svg xmlns="http://www.w3.org/2000/svg" viewBox="0 0 1500 940" font-family="Georgia, serif">
<rect width="1500" height="940" fill="#f6f1e5"/>
<circle cx="822" cy="377" r="0.5" fill="#2f2b26" opacity="0.04"/>
<circle cx="79" cy="931" r="0.3" fill="#2f2b26" opacity="0.04"/>
<circle cx="1250" cy="544" r="0.5" fill="#2f2b26" opacity="0.04"/>
<circle cx="1303" cy="127" r="0.6" fill="#2f2b26" opacity="0.04"/>
<circle cx="559" cy="913" r="0.9" fill="#2f2b26" opacity="0.04"/>
<circle cx="268" cy="919" r="0.5" fill="#2f2b26" opacity="0.04"/>
<circle cx="218" cy="357" r="0.8" fill="#2f2b26" opacity="0.04"/>
<circle cx="1112" cy="425" r="0.7" fill="#2f2b26" opacity="0.04"/>
<circle cx="608" cy="431" r="0.5" fill="#2f2b26" opacity="0.04"/>
<circle cx="1293" cy="706" r="0.4" fill="#2f2b26" opacity="0.04"/>
<circle cx="814" cy="911" r="0.9" fill="#2f2b26" opacity="0.04"/>
<circle cx="508" cy="791" r="0.9" fill="#2f2b26" opacity="0.04"/>
<circle cx="364" cy="851" r="0.8" fill="#2f2b26" opacity="0.04"/>
<circle cx="420" cy="644" r="0.9" fill="#2f2b26" opacity="0.04"/>
<circle cx="394" cy="819" r="0.5" fill="#2f2b26" opacity="0.04"/>
<circle cx="579" cy="222" r="0.8" fill="#2f2b26" opacity="0.04"/>
<circle cx="35" cy="648" r="0.7" fill="#2f2b26" opacity="0.04"/>
<circle cx="484" cy="638" r="0.9" fill="#2f2b26" opacity="0.04"/>
<circle cx="786" cy="335" r="0.8" fill="#2f2b26" opacity="0.04"/>
<circle cx="615" cy="876" r="0.8" fill="#2f2b26" opacity="0.04"/>
<circle cx="1464" cy="236" r="0.5" fill="#2f2b26" opacity="0.04"/>
<circle cx="43" cy="571" r="0.9" fill="#2f2b26" opacity="0.04"/>
<circle cx="1418" cy="515" r="0.6" fill="#2f2b26" opacity="0.04"/>
<circle cx="1361" cy="219" r="0.8" fill="#2f2b26" opacity="0.04"/>
<circle cx="1030" cy="597" r="0.5" fill="#2f2b26" opacity="0.04"/>
<circle cx="512" cy="851" r="0.5" fill="#2f2b26" opacity="0.04"/>
<circle cx="1201" cy="380" r="0.4" fill="#2f2b26" opacity="0.04"/>
<circle cx="1495" cy="641" r="0.8" fill="#2f2b26" opacity="0.04"/>
<circle cx="107" cy="896" r="0.8" fill="#2f2b26" opacity="0.04"/>
<circle cx="465" cy="65" r="0.3" fill="#2f2b26" opacity="0.04"/>
<circle cx="1161" cy="503" r="0.7" fill="#2f2b26" opacity="0.04"/>
<circle cx="411" cy="825" r="0.7" fill="#2f2b26" opacity="0.04"/>
<circle cx="1152" cy="176" r="0.7" fill="#2f2b26" opacity="0.04"/>
<circle cx="641" cy="650" r="0.7" fill="#2f2b26" opacity="0.04"/>
<circle cx="589" cy="665" r="0.7" fill="#2f2b26" opacity="0.04"/>
<circle cx="1386" cy="897" r="0.7" fill="#2f2b26" opacity="0.04"/>
<circle cx="204" cy="164" r="0.9" fill="#2f2b26" opacity="0.04"/>
<circle cx="434" cy="697" r="0.6" fill="#2f2b26" opacity="0.04"/>
<circle cx="99" cy="763" r="0.6" fill="#2f2b26" opacity="0.04"/>
<circle cx="1246" cy="835" r="0.8" fill="#2f2b26" opacity="0.04"/>
<circle cx="891" cy="650" r="0.8" fill="#2f2b26" opacity="0.04"/>
<circle cx="1098" cy="720" r="0.7" fill="#2f2b26" opacity="0.04"/>
<circle cx="510" cy="254" r="0.9" fill="#2f2b26" opacity="0.04"/>
<circle cx="1454" cy="275" r="0.7" fill="#2f2b26" opacity="0.04"/>
<circle cx="1479" cy="808" r="0.5" fill="#2f2b26" opacity="0.04"/>
<circle cx="1425" cy="22" r="0.7" fill="#2f2b26" opacity="0.04"/>
<circle cx="243" cy="534" r="0.9" fill="#2f2b26" opacity="0.04"/>
<circle cx="86" cy="579" r="0.5" fill="#2f2b26" opacity="0.04"/>
<circle cx="359" cy="879" r="0.7" fill="#2f2b26" opacity="0.04"/>
<circle cx="405" cy="788" r="0.6" fill="#2f2b26" opacity="0.04"/>
<circle cx="202" cy="309" r="0.5" fill="#2f2b26" opacity="0.04"/>
<circle cx="1383" cy="841" r="0.9" fill="#2f2b26" opacity="0.04"/>
<circle cx="658" cy="614" r="0.5" fill="#2f2b26" opacity="0.04"/>
<circle cx="357" cy="792" r="0.7" fill="#2f2b26" opacity="0.04"/>
<circle cx="417" cy="365" r="0.7" fill="#2f2b26" opacity="0.04"/>
<circle cx="1253" cy="574" r="0.5" fill="#2f2b26" opacity="0.04"/>
<circle cx="617" cy="403" r="0.6" fill="#2f2b26" opacity="0.04"/>
<circle cx="1321" cy="277" r="0.4" fill="#2f2b26" opacity="0.04"/>
<circle cx="1012" cy="847" r="0.4" fill="#2f2b26" opacity="0.04"/>
<circle cx="437" cy="874" r="0.6" fill="#2f2b26" opacity="0.04"/>
<circle cx="963" cy="353" r="0.3" fill="#2f2b26" opacity="0.04"/>
<circle cx="1462" cy="558" r="0.8" fill="#2f2b26" opacity="0.04"/>
<circle cx="1037" cy="627" r="0.9" fill="#2f2b26" opacity="0.04"/>
<circle cx="280" cy="837" r="0.7" fill="#2f2b26" opacity="0.04"/>
<circle cx="1311" cy="868" r="0.6" fill="#2f2b26" opacity="0.04"/>
<circle cx="976" cy="343" r="0.6" fill="#2f2b26" opacity="0.04"/>
<circle cx="1240" cy="544" r="0.8" fill="#2f2b26" opacity="0.04"/>
<circle cx="366" cy="144" r="0.7" fill="#2f2b26" opacity="0.04"/>
<circle cx="949" cy="445" r="0.6" fill="#2f2b26" opacity="0.04"/>
<circle cx="641" cy="48" r="0.8" fill="#2f2b26" opacity="0.04"/>
<circle cx="489" cy="269" r="0.4" fill="#2f2b26" opacity="0.04"/>
<circle cx="469" cy="742" r="0.5" fill="#2f2b26" opacity="0.04"/>
<circle cx="536" cy="250" r="0.9" fill="#2f2b26" opacity="0.04"/>
<circle cx="530" cy="97" r="0.5" fill="#2f2b26" opacity="0.04"/>
<circle cx="1378" cy="835" r="0.8" fill="#2f2b26" opacity="0.04"/>
<circle cx="713" cy="708" r="0.9" fill="#2f2b26" opacity="0.04"/>
<circle cx="1399" cy="670" r="0.8" fill="#2f2b26" opacity="0.04"/>
<circle cx="1285" cy="148" r="0.5" fill="#2f2b26" opacity="0.04"/>
<circle cx="1242" cy="78" r="0.6" fill="#2f2b26" opacity="0.04"/>
<circle cx="360" cy="866" r="0.6" fill="#2f2b26" opacity="0.04"/>
<circle cx="71" cy="293" r="0.8" fill="#2f2b26" opacity="0.04"/>
<circle cx="860" cy="828" r="0.8" fill="#2f2b26" opacity="0.04"/>
<circle cx="1314" cy="666" r="0.4" fill="#2f2b26" opacity="0.04"/>
<circle cx="89" cy="827" r="0.6" fill="#2f2b26" opacity="0.04"/>
<circle cx="914" cy="903" r="0.4" fill="#2f2b26" opacity="0.04"/>
<circle cx="1329" cy="636" r="0.6" fill="#2f2b26" opacity="0.04"/>
<circle cx="964" cy="327" r="0.5" fill="#2f2b26" opacity="0.04"/>
<circle cx="777" cy="691" r="0.5" fill="#2f2b26" opacity="0.04"/>
<circle cx="876" cy="921" r="0.5" fill="#2f2b26" opacity="0.04"/>
<circle cx="1471" cy="476" r="0.8" fill="#2f2b26" opacity="0.04"/>
<circle cx="233" cy="573" r="0.8" fill="#2f2b26" opacity="0.04"/>
<circle cx="1194" cy="144" r="0.5" fill="#2f2b26" opacity="0.04"/>
<circle cx="184" cy="259" r="0.6" fill="#2f2b26" opacity="0.04"/>
<circle cx="908" cy="533" r="0.6" fill="#2f2b26" opacity="0.04"/>
<circle cx="336" cy="626" r="0.4" fill="#2f2b26" opacity="0.04"/>
<circle cx="1143" cy="458" r="0.6" fill="#2f2b26" opacity="0.04"/>
<circle cx="1246" cy="638" r="0.8" fill="#2f2b26" opacity="0.04"/>
<circle cx="1457" cy="202" r="0.3" fill="#2f2b26" opacity="0.04"/>
<circle cx="245" cy="247" r="0.8" fill="#2f2b26" opacity="0.04"/>
<circle cx="1386" cy="470" r="0.8" fill="#2f2b26" opacity="0.04"/>
<circle cx="1312" cy="304" r="0.6" fill="#2f2b26" opacity="0.04"/>
<circle cx="1149" cy="244" r="0.5" fill="#2f2b26" opacity="0.04"/>
<circle cx="1191" cy="498" r="0.4" fill="#2f2b26" opacity="0.04"/>
<circle cx="578" cy="139" r="0.6" fill="#2f2b26" opacity="0.04"/>
<circle cx="38" cy="352" r="0.8" fill="#2f2b26" opacity="0.04"/>
<circle cx="1441" cy="870" r="0.7" fill="#2f2b26" opacity="0.04"/>
<circle cx="1269" cy="932" r="0.9" fill="#2f2b26" opacity="0.04"/>
<circle cx="767" cy="540" r="0.6" fill="#2f2b26" opacity="0.04"/>
<circle cx="926" cy="503" r="0.8" fill="#2f2b26" opacity="0.04"/>
<circle cx="616" cy="42" r="0.8" fill="#2f2b26" opacity="0.04"/>
<circle cx="881" cy="602" r="0.5" fill="#2f2b26" opacity="0.04"/>
<circle cx="717" cy="782" r="0.7" fill="#2f2b26" opacity="0.04"/>
<circle cx="837" cy="602" r="0.4" fill="#2f2b26" opacity="0.04"/>
<circle cx="656" cy="638" r="0.7" fill="#2f2b26" opacity="0.04"/>
<circle cx="1278" cy="484" r="0.4" fill="#2f2b26" opacity="0.04"/>
<circle cx="276" cy="462" r="0.5" fill="#2f2b26" opacity="0.04"/>
<circle cx="1065" cy="493" r="0.8" fill="#2f2b26" opacity="0.04"/>
<circle cx="170" cy="664" r="0.8" fill="#2f2b26" opacity="0.04"/>
<circle cx="158" cy="753" r="0.7" fill="#2f2b26" opacity="0.04"/>
<circle cx="684" cy="469" r="0.3" fill="#2f2b26" opacity="0.04"/>
<circle cx="524" cy="261" r="0.8" fill="#2f2b26" opacity="0.04"/>
<circle cx="1304" cy="266" r="0.7" fill="#2f2b26" opacity="0.04"/>
<circle cx="1464" cy="602" r="0.8" fill="#2f2b26" opacity="0.04"/>
<circle cx="913" cy="35" r="0.4" fill="#2f2b26" opacity="0.04"/>
<circle cx="1367" cy="187" r="0.5" fill="#2f2b26" opacity="0.04"/>
<circle cx="421" cy="511" r="0.5" fill="#2f2b26" opacity="0.04"/>
<circle cx="248" cy="873" r="0.5" fill="#2f2b26" opacity="0.04"/>
<circle cx="641" cy="752" r="0.5" fill="#2f2b26" opacity="0.04"/>
<circle cx="779" cy="768" r="0.9" fill="#2f2b26" opacity="0.04"/>
<circle cx="340" cy="939" r="0.7" fill="#2f2b26" opacity="0.04"/>
<circle cx="856" cy="361" r="0.8" fill="#2f2b26" opacity="0.04"/>
<circle cx="1149" cy="324" r="0.5" fill="#2f2b26" opacity="0.04"/>
<circle cx="441" cy="27" r="0.7" fill="#2f2b26" opacity="0.04"/>
<circle cx="507" cy="65" r="0.8" fill="#2f2b26" opacity="0.04"/>
<circle cx="423" cy="2" r="0.5" fill="#2f2b26" opacity="0.04"/>
<circle cx="981" cy="350" r="0.8" fill="#2f2b26" opacity="0.04"/>
<circle cx="1399" cy="597" r="0.7" fill="#2f2b26" opacity="0.04"/>
<circle cx="1396" cy="384" r="0.6" fill="#2f2b26" opacity="0.04"/>
<circle cx="314" cy="540" r="0.6" fill="#2f2b26" opacity="0.04"/>
<circle cx="1435" cy="227" r="0.9" fill="#2f2b26" opacity="0.04"/>
<circle cx="51" cy="484" r="0.4" fill="#2f2b26" opacity="0.04"/>
<circle cx="694" cy="310" r="0.5" fill="#2f2b26" opacity="0.04"/>
<circle cx="756" cy="923" r="0.6" fill="#2f2b26" opacity="0.04"/>
<circle cx="919" cy="849" r="0.4" fill="#2f2b26" opacity="0.04"/>
<circle cx="1065" cy="333" r="0.3" fill="#2f2b26" opacity="0.04"/>
<circle cx="412" cy="548" r="0.4" fill="#2f2b26" opacity="0.04"/>
<circle cx="976" cy="256" r="0.5" fill="#2f2b26" opacity="0.04"/>
<circle cx="172" cy="645" r="0.3" fill="#2f2b26" opacity="0.04"/>
<circle cx="199" cy="384" r="0.5" fill="#2f2b26" opacity="0.04"/>
<circle cx="465" cy="583" r="0.6" fill="#2f2b26" opacity="0.04"/>
<circle cx="869" cy="573" r="0.6" fill="#2f2b26" opacity="0.04"/>
<circle cx="1382" cy="169" r="0.8" fill="#2f2b26" opacity="0.04"/>
<circle cx="712" cy="78" r="0.9" fill="#2f2b26" opacity="0.04"/>
<circle cx="990" cy="95" r="0.6" fill="#2f2b26" opacity="0.04"/>
<circle cx="1388" cy="54" r="0.8" fill="#2f2b26" opacity="0.04"/>
<circle cx="949" cy="73" r="0.6" fill="#2f2b26" opacity="0.04"/>
<circle cx="808" cy="831" r="0.7" fill="#2f2b26" opacity="0.04"/>
<circle cx="554" cy="771" r="0.8" fill="#2f2b26" opacity="0.04"/>
<circle cx="329" cy="409" r="0.8" fill="#2f2b26" opacity="0.04"/>
<circle cx="937" cy="127" r="0.5" fill="#2f2b26" opacity="0.04"/>
<circle cx="610" cy="700" r="0.8" fill="#2f2b26" opacity="0.04"/>
<circle cx="267" cy="6" r="0.7" fill="#2f2b26" opacity="0.04"/>
<circle cx="432" cy="132" r="0.4" fill="#2f2b26" opacity="0.04"/>
<circle cx="1068" cy="269" r="0.7" fill="#2f2b26" opacity="0.04"/>
<circle cx="624" cy="214" r="0.5" fill="#2f2b26" opacity="0.04"/>
<circle cx="802" cy="904" r="0.3" fill="#2f2b26" opacity="0.04"/>
<circle cx="723" cy="41" r="0.4" fill="#2f2b26" opacity="0.04"/>
<circle cx="690" cy="111" r="0.7" fill="#2f2b26" opacity="0.04"/>
<circle cx="1270" cy="640" r="0.8" fill="#2f2b26" opacity="0.04"/>
<circle cx="256" cy="502" r="0.8" fill="#2f2b26" opacity="0.04"/>
<circle cx="304" cy="575" r="0.4" fill="#2f2b26" opacity="0.04"/>
<circle cx="1448" cy="297" r="0.5" fill="#2f2b26" opacity="0.04"/>
<circle cx="773" cy="106" r="0.5" fill="#2f2b26" opacity="0.04"/>
<circle cx="768" cy="829" r="0.5" fill="#2f2b26" opacity="0.04"/>
<circle cx="1120" cy="756" r="0.8" fill="#2f2b26" opacity="0.04"/>
<circle cx="933" cy="695" r="0.8" fill="#2f2b26" opacity="0.04"/>
<circle cx="233" cy="403" r="0.7" fill="#2f2b26" opacity="0.04"/>
<circle cx="107" cy="847" r="0.9" fill="#2f2b26" opacity="0.04"/>
<circle cx="1231" cy="827" r="0.3" fill="#2f2b26" opacity="0.04"/>
<circle cx="905" cy="118" r="0.9" fill="#2f2b26" opacity="0.04"/>
<circle cx="634" cy="54" r="0.5" fill="#2f2b26" opacity="0.04"/>
<circle cx="576" cy="393" r="0.6" fill="#2f2b26" opacity="0.04"/>
<circle cx="1179" cy="721" r="0.8" fill="#2f2b26" opacity="0.04"/>
<circle cx="80" cy="868" r="0.6" fill="#2f2b26" opacity="0.04"/>
<circle cx="783" cy="729" r="0.6" fill="#2f2b26" opacity="0.04"/>
<circle cx="145" cy="212" r="0.3" fill="#2f2b26" opacity="0.04"/>
<circle cx="507" cy="347" r="0.8" fill="#2f2b26" opacity="0.04"/>
<circle cx="320" cy="622" r="0.8" fill="#2f2b26" opacity="0.04"/>
<circle cx="923" cy="625" r="0.4" fill="#2f2b26" opacity="0.04"/>
<circle cx="1036" cy="678" r="0.8" fill="#2f2b26" opacity="0.04"/>
<circle cx="187" cy="816" r="0.5" fill="#2f2b26" opacity="0.04"/>
<circle cx="483" cy="705" r="0.5" fill="#2f2b26" opacity="0.04"/>
<circle cx="1251" cy="184" r="0.4" fill="#2f2b26" opacity="0.04"/>
<circle cx="1196" cy="98" r="0.6" fill="#2f2b26" opacity="0.04"/>
<circle cx="874" cy="634" r="0.8" fill="#2f2b26" opacity="0.04"/>
<circle cx="1084" cy="680" r="0.7" fill="#2f2b26" opacity="0.04"/>
<circle cx="1351" cy="688" r="0.8" fill="#2f2b26" opacity="0.04"/>
<circle cx="252" cy="845" r="0.4" fill="#2f2b26" opacity="0.04"/>
<circle cx="1126" cy="555" r="0.6" fill="#2f2b26" opacity="0.04"/>
<circle cx="399" cy="612" r="0.7" fill="#2f2b26" opacity="0.04"/>
<circle cx="253" cy="902" r="0.4" fill="#2f2b26" opacity="0.04"/>
<circle cx="196" cy="217" r="0.7" fill="#2f2b26" opacity="0.04"/>
<circle cx="811" cy="367" r="0.4" fill="#2f2b26" opacity="0.04"/>
<circle cx="280" cy="59" r="0.4" fill="#2f2b26" opacity="0.04"/>
<circle cx="1063" cy="664" r="0.5" fill="#2f2b26" opacity="0.04"/>
<circle cx="2" cy="454" r="0.5" fill="#2f2b26" opacity="0.04"/>
<circle cx="620" cy="808" r="0.8" fill="#2f2b26" opacity="0.04"/>
<circle cx="592" cy="394" r="0.8" fill="#2f2b26" opacity="0.04"/>
<circle cx="365" cy="203" r="0.5" fill="#2f2b26" opacity="0.04"/>
<circle cx="1219" cy="531" r="0.7" fill="#2f2b26" opacity="0.04"/>
<circle cx="1420" cy="490" r="0.6" fill="#2f2b26" opacity="0.04"/>
<circle cx="439" cy="422" r="0.5" fill="#2f2b26" opacity="0.04"/>
<circle cx="81" cy="16" r="0.9" fill="#2f2b26" opacity="0.04"/>
<circle cx="510" cy="112" r="0.4" fill="#2f2b26" opacity="0.04"/>
<circle cx="489" cy="833" r="0.4" fill="#2f2b26" opacity="0.04"/>
<circle cx="644" cy="191" r="0.6" fill="#2f2b26" opacity="0.04"/>
<circle cx="1342" cy="376" r="0.5" fill="#2f2b26" opacity="0.04"/>
<circle cx="392" cy="797" r="0.5" fill="#2f2b26" opacity="0.04"/>
<circle cx="152" cy="860" r="0.3" fill="#2f2b26" opacity="0.04"/>
<circle cx="1452" cy="317" r="0.6" fill="#2f2b26" opacity="0.04"/>
<circle cx="942" cy="33" r="0.8" fill="#2f2b26" opacity="0.04"/>
<circle cx="905" cy="672" r="0.4" fill="#2f2b26" opacity="0.04"/>
<circle cx="297" cy="573" r="0.8" fill="#2f2b26" opacity="0.04"/>
<circle cx="239" cy="430" r="0.6" fill="#2f2b26" opacity="0.04"/>
<circle cx="1045" cy="186" r="0.8" fill="#2f2b26" opacity="0.04"/>
<circle cx="492" cy="234" r="0.5" fill="#2f2b26" opacity="0.04"/>
<circle cx="1268" cy="27" r="0.8" fill="#2f2b26" opacity="0.04"/>
<circle cx="371" cy="649" r="0.7" fill="#2f2b26" opacity="0.04"/>
<circle cx="1039" cy="872" r="0.9" fill="#2f2b26" opacity="0.04"/>
<circle cx="428" cy="414" r="0.6" fill="#2f2b26" opacity="0.04"/>
<circle cx="424" cy="236" r="0.9" fill="#2f2b26" opacity="0.04"/>
<circle cx="900" cy="913" r="0.6" fill="#2f2b26" opacity="0.04"/>
<circle cx="1111" cy="447" r="0.3" fill="#2f2b26" opacity="0.04"/>
<circle cx="1241" cy="401" r="0.8" fill="#2f2b26" opacity="0.04"/>
<circle cx="404" cy="462" r="0.8" fill="#2f2b26" opacity="0.04"/>
<circle cx="739" cy="673" r="0.4" fill="#2f2b26" opacity="0.04"/>
<circle cx="1197" cy="67" r="0.4" fill="#2f2b26" opacity="0.04"/>
<circle cx="900" cy="702" r="0.7" fill="#2f2b26" opacity="0.04"/>
<circle cx="1465" cy="44" r="0.6" fill="#2f2b26" opacity="0.04"/>
<circle cx="1488" cy="610" r="0.8" fill="#2f2b26" opacity="0.04"/>
<text x="60" y="70" font-family="Georgia, 'Songti SC', serif" font-style="normal" font-size="34" fill="#2f2b26" text-anchor="start" opacity="0.85">同一个动作 · The Same Gesture</text>
<text x="60" y="100" font-family="Georgia, 'Songti SC', serif" font-style="italic" font-size="15" fill="#2f2b26" text-anchor="start" opacity="0.6">sketch 00 — glyph 语法，与两条真实的线 · data: 331 closed trades, 2025-12-31 → 2026-07-22</text>
<line x1="60" y1="118" x2="1440" y2="118" stroke="#2f2b26" stroke-width="0.7" opacity="0.3"/>
<text x="60" y="180" font-family="Georgia, 'Songti SC', serif" font-style="normal" font-size="20" fill="#2f2b26" text-anchor="start" opacity="0.85">一株 = 一笔交易</text>
<line x1="120" y1="240" x2="300" y2="240" stroke="#2f2b26" stroke-width="1" opacity="0.35"/>
<path d="M 208.8 238.6 Q 208.8 238.6 210.9 254.7 Q 213.1 270.8 213.9 286.1 Q 214.7 301.4 216.4 317.6 Q 218.1 333.8 216.7 349.3 Q 215.3 364.8 215.5 380.4 Q 215.7 396.0 216.6 412.6 T 217.5 429.3" fill="none" stroke="#4a6b52" stroke-width="3.7" stroke-linecap="round"/>
<circle cx="220.0" cy="427.9" r="26.4" fill="none" stroke="#4a6b52" stroke-width="3.3" opacity="0.9" transform="rotate(5 220.0 427.9)"/>
<circle cx="221.5" cy="429.1" r="26.4" fill="none" stroke="#4a6b52" stroke-width="3.3" opacity="0.45" transform="rotate(7 220.0 427.9)"/>
<circle cx="220.0" cy="427.9" r="11.9" fill="#4a6b52" opacity="0.55"/>
<line x1="202.3" y1="408.3" x2="187.5" y2="392.0" stroke="#4a6b52" stroke-width="2.9" stroke-linecap="round"/>
<line x1="221.9" y1="401.6" x2="223.5" y2="379.6" stroke="#4a6b52" stroke-width="2.9" stroke-linecap="round"/>
<line x1="236.1" y1="407.0" x2="249.5" y2="389.5" stroke="#4a6b52" stroke-width="2.9" stroke-linecap="round"/>
<text x="315" y="248" font-family="Georgia, 'Songti SC', serif" font-style="italic" font-size="13" fill="#2f2b26" text-anchor="start" opacity="0.85">锚点 = 离场日（挂在时间线上）</text>
<path d="M 310.2 244.7 Q 310.2 244.7 288.1 244.0 Q 266.1 243.3 243.7 242.8 T 221.3 242.2" fill="none" stroke="#2f2b26" stroke-width="0.8" opacity="0.55"/>
<text x="300" y="335" font-family="Georgia, 'Songti SC', serif" font-style="italic" font-size="13" fill="#2f2b26" text-anchor="start" opacity="0.85">茎长 = 持仓天数</text>
<path d="M 294.4 330.6 Q 294.4 330.6 281.7 329.7 Q 269.0 328.7 255.6 327.1 T 242.1 325.5" fill="none" stroke="#2f2b26" stroke-width="0.8" opacity="0.55"/>
<text x="300" y="360" font-family="Georgia, 'Songti SC', serif" font-style="italic" font-size="13" fill="#2f2b26" text-anchor="start" opacity="0.85">茎的倾向 = long 右倾 / short 左倾</text>
<text x="290" y="407.88" font-family="Georgia, 'Songti SC', serif" font-style="italic" font-size="13" fill="#2f2b26" text-anchor="start" opacity="0.85">花冠半径 = |R|</text>
<path d="M 285.4 404.6 Q 285.4 404.6 276.7 408.1 Q 268.0 411.5 258.9 414.7 T 249.9 417.8" fill="none" stroke="#2f2b26" stroke-width="0.8" opacity="0.55"/>
<text x="290" y="432.88" font-family="Georgia, 'Songti SC', serif" font-style="italic" font-size="13" fill="#2f2b26" text-anchor="start" opacity="0.85">花瓣 = 分批离场 1/2/3</text>
<text x="290" y="457.88" font-family="Georgia, 'Songti SC', serif" font-style="italic" font-size="13" fill="#2f2b26" text-anchor="start" opacity="0.85">实心 = 盈利 · 空心 = 亏损</text>
<line x1="120" y1="560" x2="300" y2="560" stroke="#2f2b26" stroke-width="1" opacity="0.35"/>
<path d="M 211.1 558.7 Q 211.1 558.7 212.5 561.0 Q 213.9 563.3 214.6 566.6 Q 215.3 569.8 216.4 572.4 Q 217.5 575.0 216.6 577.8 Q 215.7 580.6 216.2 583.2 Q 216.7 585.7 216.3 588.2 T 216.0 590.7" fill="none" stroke="#a84b32" stroke-width="3.5" stroke-linecap="round"/>
<path d="M 214.1 592.8 Q 214.1 592.8 215.0 593.9 Q 215.9 595.0 220.1 598.4 T 224.2 601.8" fill="none" stroke="#a84b32" stroke-width="3.1" stroke-linecap="round" opacity="0.8"/>
<circle cx="224.0" cy="602.6" r="9.9" fill="none" stroke="#a84b32" stroke-width="3.3" opacity="0.9" transform="rotate(4 224.0 602.6)"/>
<circle cx="225.5" cy="603.8" r="9.9" fill="none" stroke="#a84b32" stroke-width="3.3" opacity="0.45" transform="rotate(6 224.0 602.6)"/>
<line x1="217.4" y1="595.2" x2="202.8" y2="578.7" stroke="#a84b32" stroke-width="2.9" stroke-linecap="round"/>
<text x="290" y="605" font-family="Georgia, 'Songti SC', serif" font-style="italic" font-size="13" fill="#a84b32" text-anchor="start" opacity="0.85">断茎 = 被止损打出 (R ≤ −1)</text>
<text x="290" y="628" font-family="Georgia, 'Songti SC', serif" font-style="italic" font-size="13" fill="#2f2b26" text-anchor="start" opacity="0.85">铁锈红 = 止损 · 灰 = 小亏</text>
<text x="60" y="700" font-family="Georgia, 'Songti SC', serif" font-style="normal" font-size="20" fill="#2f2b26" text-anchor="start" opacity="0.85">颜色</text>
<circle cx="72" cy="723" r="7" fill="none" stroke="#4a6b52" stroke-width="2"/>
<circle cx="72" cy="723" r="3" fill="#4a6b52" opacity="0.7"/>
<text x="92" y="728" font-family="Georgia, 'Songti SC', serif" font-style="italic" font-size="14" fill="#2f2b26" text-anchor="start" opacity="0.85">盈利 132 笔</text>
<circle cx="72" cy="750" r="7" fill="none" stroke="#8d857a" stroke-width="2"/>
<circle cx="72" cy="750" r="3" fill="#8d857a" opacity="0.7"/>
<text x="92" y="755" font-family="Georgia, 'Songti SC', serif" font-style="italic" font-size="14" fill="#2f2b26" text-anchor="start" opacity="0.85">小亏 (−1R…0)</text>
<circle cx="72" cy="777" r="7" fill="none" stroke="#a84b32" stroke-width="2"/>
<circle cx="72" cy="777" r="3" fill="#a84b32" opacity="0.7"/>
<text x="92" y="782" font-family="Georgia, 'Songti SC', serif" font-style="italic" font-size="14" fill="#2f2b26" text-anchor="start" opacity="0.85">止损 (≤ −1R) 42 笔</text>
<circle cx="72" cy="804" r="7" fill="none" stroke="#b98c2c" stroke-width="2"/>
<circle cx="72" cy="804" r="3" fill="#b98c2c" opacity="0.7"/>
<text x="92" y="809" font-family="Georgia, 'Songti SC', serif" font-style="italic" font-size="14" fill="#2f2b26" text-anchor="start" opacity="0.85">扛起全部净利润的 31 笔 — 其余 300 笔加总 ≈ 0</text>
<text x="620" y="180" font-family="Georgia, 'Songti SC', serif" font-style="normal" font-size="20" fill="#2f2b26" text-anchor="start" opacity="0.85">线 = 同一标的的重复进攻</text>
<text x="620" y="208" font-family="Georgia, 'Songti SC', serif" font-style="italic" font-size="15" fill="#4a6b52" text-anchor="start" opacity="0.85">BE — 16 次进攻。前 8 次：−$19,300。第 9 次：+$74,052。</text>
<path d="M 781.4 262.8 Q 781.4 262.8 821.8 262.1 Q 862.2 261.4 875.1 261.0 Q 888.1 260.5 914.1 261.6 Q 940.1 262.6 953.7 259.8 Q 967.3 257.0 980.2 257.3 Q 993.1 257.5 1005.7 259.2 Q 1018.4 260.8 1031.9 259.7 Q 1045.4 258.5 1063.9 257.6 Q 1082.5 256.6 1100.6 259.7 Q 1118.8 262.7 1132.2 260.8 Q 1145.7 258.8 1158.1 258.8 Q 1170.5 258.8 1183.5 260.1 Q 1196.5 261.3 1210.1 259.0 Q 1223.6 256.6 1236.5 257.6 Q 1249.4 258.5 1262.0 260.5 T 1274.5 262.6" fill="none" stroke="#2f2b26" stroke-width="0.9" opacity="0.4"/>
<path d="M 783.9 261.5 Q 783.9 261.5 784.1 261.7 Q 784.4 261.9 786.8 263.5 Q 789.1 265.1 788.9 266.3 Q 788.7 267.5 789.6 268.5 Q 790.5 269.5 789.7 270.7 Q 789.0 271.9 789.3 273.4 T 789.6 274.8" fill="none" stroke="#8d857a" stroke-width="1.6" stroke-linecap="round"/>
<circle cx="792.4" cy="274.9" r="3.6" fill="none" stroke="#8d857a" stroke-width="1.4" opacity="0.9" transform="rotate(-0 792.4 274.9)"/>
<circle cx="793.9" cy="276.1" r="3.6" fill="none" stroke="#8d857a" stroke-width="1.4" opacity="0.45" transform="rotate(4 792.4 274.9)"/>
<line x1="789.7" y1="272.4" x2="782.8" y2="265.9" stroke="#8d857a" stroke-width="1.2" stroke-linecap="round"/>
<path d="M 862.0 260.4 Q 862.0 260.4 863.8 262.0 Q 865.7 263.6 865.8 265.0 Q 865.9 266.3 866.4 267.7 Q 866.9 269.2 867.7 269.3 Q 868.6 269.4 868.1 271.4 Q 867.5 273.3 868.5 275.5 T 869.5 277.7" fill="none" stroke="#8d857a" stroke-width="1.6" stroke-linecap="round"/>
<circle cx="871.6" cy="276.5" r="3.7" fill="none" stroke="#8d857a" stroke-width="1.4" opacity="0.9" transform="rotate(8 871.6 276.5)"/>
<circle cx="873.1" cy="277.7" r="3.7" fill="none" stroke="#8d857a" stroke-width="1.4" opacity="0.45" transform="rotate(3 871.6 276.5)"/>
<line x1="869.0" y1="273.9" x2="862.3" y2="267.1" stroke="#8d857a" stroke-width="1.2" stroke-linecap="round"/>
<path d="M 887.8 259.0 Q 887.8 259.0 889.7 261.5 Q 891.6 263.9 893.0 264.4 Q 894.3 264.8 894.8 267.6 Q 895.2 270.4 894.6 270.5 Q 894.0 270.5 893.9 272.8 Q 893.8 275.1 894.3 277.4 T 894.9 279.7" fill="none" stroke="#8d857a" stroke-width="1.6" stroke-linecap="round"/>
<circle cx="897.6" cy="278.1" r="3.8" fill="none" stroke="#8d857a" stroke-width="1.4" opacity="0.9" transform="rotate(4 897.6 278.1)"/>
<circle cx="899.1" cy="279.3" r="3.8" fill="none" stroke="#8d857a" stroke-width="1.4" opacity="0.45" transform="rotate(-3 897.6 278.1)"/>
<line x1="894.8" y1="275.6" x2="887.8" y2="269.1" stroke="#8d857a" stroke-width="1.2" stroke-linecap="round"/>
<line x1="897.5" y1="274.3" x2="897.3" y2="264.8" stroke="#8d857a" stroke-width="1.2" stroke-linecap="round"/>
<line x1="900.4" y1="275.5" x2="907.3" y2="269.0" stroke="#8d857a" stroke-width="1.2" stroke-linecap="round"/>
<path d="M 941.6 261.2 Q 941.6 261.2 942.3 261.4 Q 943.1 261.6 945.1 262.6 Q 947.0 263.5 947.0 264.5 Q 947.0 265.4 946.8 267.4 Q 946.7 269.3 946.7 270.4 Q 946.7 271.4 947.9 271.9 T 949.2 272.4" fill="none" stroke="#a84b32" stroke-width="1.5" stroke-linecap="round"/>
<path d="M 944.9 277.4 Q 944.9 277.4 945.6 278.1 Q 946.3 278.7 951.2 278.4 T 956.2 278.0" fill="none" stroke="#a84b32" stroke-width="1.3" stroke-linecap="round" opacity="0.8"/>
<circle cx="954.8" cy="278.4" r="5.4" fill="none" stroke="#a84b32" stroke-width="1.4" opacity="0.9" transform="rotate(6 954.8 278.4)"/>
<circle cx="956.3" cy="279.6" r="5.4" fill="none" stroke="#a84b32" stroke-width="1.4" opacity="0.45" transform="rotate(-6 954.8 278.4)"/>
<line x1="951.2" y1="274.4" x2="944.8" y2="267.3" stroke="#a84b32" stroke-width="1.2" stroke-linecap="round"/>
<path d="M 968.3 260.4 Q 968.3 260.4 969.4 261.2 Q 970.5 262.0 971.0 263.7 Q 971.5 265.3 973.0 266.5 Q 974.4 267.8 973.5 268.4 Q 972.7 269.1 972.3 269.3 Q 971.9 269.6 973.6 270.3 T 975.3 271.1" fill="none" stroke="#a84b32" stroke-width="1.5" stroke-linecap="round"/>
<path d="M 971.6 276.2 Q 971.6 276.2 972.7 277.9 Q 973.9 279.7 976.9 278.7 T 979.9 277.6" fill="none" stroke="#a84b32" stroke-width="1.3" stroke-linecap="round" opacity="0.8"/>
<circle cx="980.8" cy="278.4" r="4.6" fill="none" stroke="#a84b32" stroke-width="1.4" opacity="0.9" transform="rotate(6 980.8 278.4)"/>
<circle cx="982.3" cy="279.6" r="4.6" fill="none" stroke="#a84b32" stroke-width="1.4" opacity="0.45" transform="rotate(-7 980.8 278.4)"/>
<line x1="977.7" y1="275.0" x2="971.4" y2="267.9" stroke="#a84b32" stroke-width="1.2" stroke-linecap="round"/>
<path d="M 993.6 259.5 Q 993.6 259.5 995.3 260.9 Q 997.0 262.3 997.5 263.0 Q 998.1 263.7 998.7 264.9 Q 999.3 266.2 999.0 266.7 Q 998.6 267.2 998.9 269.0 Q 999.2 270.9 999.2 271.8 T 999.3 272.8" fill="none" stroke="#a84b32" stroke-width="1.5" stroke-linecap="round"/>
<path d="M 996.4 277.4 Q 996.4 277.4 997.2 278.0 Q 998.1 278.6 1002.6 279.2 T 1007.0 279.9" fill="none" stroke="#a84b32" stroke-width="1.3" stroke-linecap="round" opacity="0.8"/>
<circle cx="1006.8" cy="278.4" r="6.6" fill="none" stroke="#a84b32" stroke-width="1.4" opacity="0.9" transform="rotate(-0 1006.8 278.4)"/>
<circle cx="1008.3" cy="279.6" r="6.6" fill="none" stroke="#a84b32" stroke-width="1.4" opacity="0.45" transform="rotate(4 1006.8 278.4)"/>
<line x1="1001.9" y1="274.0" x2="994.9" y2="267.6" stroke="#a84b32" stroke-width="1.2" stroke-linecap="round"/>
<path d="M 1020.3 260.0 Q 1020.3 260.0 1021.4 260.6 Q 1022.5 261.2 1023.2 262.9 Q 1023.9 264.5 1024.6 266.8 Q 1025.2 269.0 1025.2 269.1 Q 1025.1 269.1 1025.7 270.1 Q 1026.3 271.1 1026.2 273.5 T 1026.1 275.8" fill="none" stroke="#4a6b52" stroke-width="1.6" stroke-linecap="round"/>
<circle cx="1028.8" cy="274.9" r="3.0" fill="none" stroke="#4a6b52" stroke-width="1.4" opacity="0.9" transform="rotate(-3 1028.8 274.9)"/>
<circle cx="1030.3" cy="276.1" r="3.0" fill="none" stroke="#4a6b52" stroke-width="1.4" opacity="0.45" transform="rotate(-4 1028.8 274.9)"/>
<circle cx="1028.8" cy="274.9" r="1.4" fill="#4a6b52" opacity="0.55"/>
<line x1="1026.8" y1="272.7" x2="1020.5" y2="265.5" stroke="#4a6b52" stroke-width="1.2" stroke-linecap="round"/>
<path d="M 1046.0 259.5 Q 1046.0 259.5 1047.5 261.8 Q 1049.1 264.0 1049.4 265.3 Q 1049.8 266.5 1051.5 267.2 Q 1053.1 267.9 1052.3 268.2 Q 1051.5 268.4 1051.5 270.7 Q 1051.5 273.0 1051.7 274.7 T 1051.8 276.4" fill="none" stroke="#8d857a" stroke-width="1.6" stroke-linecap="round"/>
<circle cx="1054.8" cy="274.9" r="3.2" fill="none" stroke="#8d857a" stroke-width="1.4" opacity="0.9" transform="rotate(-2 1054.8 274.9)"/>
<circle cx="1056.3" cy="276.1" r="3.2" fill="none" stroke="#8d857a" stroke-width="1.4" opacity="0.45" transform="rotate(4 1054.8 274.9)"/>
<line x1="1052.5" y1="272.7" x2="1045.5" y2="266.2" stroke="#8d857a" stroke-width="1.2" stroke-linecap="round"/>
<path d="M 1083.1 258.7 Q 1083.1 258.7 1085.0 262.8 Q 1086.9 266.9 1087.8 271.5 Q 1088.8 276.1 1090.0 279.0 Q 1091.2 281.9 1091.2 286.0 Q 1091.2 290.1 1090.5 293.6 Q 1089.8 297.0 1090.7 301.6 T 1091.5 306.2" fill="none" stroke="#b98c2c" stroke-width="1.6" stroke-linecap="round"/>
<circle cx="1093.4" cy="305.6" r="13.3" fill="none" stroke="#b98c2c" stroke-width="1.4" opacity="0.9" transform="rotate(-2 1093.4 305.6)"/>
<circle cx="1094.9" cy="306.8" r="13.3" fill="none" stroke="#b98c2c" stroke-width="1.4" opacity="0.45" transform="rotate(5 1093.4 305.6)"/>
<circle cx="1093.4" cy="305.6" r="6.0" fill="#b98c2c" opacity="0.85"/>
<line x1="1085.3" y1="295.0" x2="1079.5" y2="287.5" stroke="#b98c2c" stroke-width="1.2" stroke-linecap="round"/>
<line x1="1092.3" y1="292.3" x2="1091.5" y2="282.9" stroke="#b98c2c" stroke-width="1.2" stroke-linecap="round"/>
<line x1="1103.0" y1="296.5" x2="1109.9" y2="289.9" stroke="#b98c2c" stroke-width="1.2" stroke-linecap="round"/>
<path d="M 1120.3 261.0 Q 1120.3 261.0 1120.7 261.8 Q 1121.1 262.6 1122.4 263.8 Q 1123.7 265.0 1124.5 267.0 Q 1125.3 269.0 1125.4 269.7 Q 1125.4 270.3 1126.1 272.1 Q 1126.9 273.8 1127.0 275.1 T 1127.2 276.3" fill="none" stroke="#8d857a" stroke-width="1.6" stroke-linecap="round"/>
<circle cx="1129.0" cy="274.9" r="3.3" fill="none" stroke="#8d857a" stroke-width="1.4" opacity="0.9" transform="rotate(1 1129.0 274.9)"/>
<circle cx="1130.5" cy="276.1" r="3.3" fill="none" stroke="#8d857a" stroke-width="1.4" opacity="0.45" transform="rotate(1 1129.0 274.9)"/>
<line x1="1126.7" y1="272.5" x2="1120.2" y2="265.6" stroke="#8d857a" stroke-width="1.2" stroke-linecap="round"/>
<path d="M 1144.6 258.7 Q 1144.6 258.7 1147.1 260.6 Q 1149.6 262.6 1150.2 264.0 Q 1150.8 265.3 1152.0 266.1 Q 1153.2 266.9 1152.0 268.4 Q 1150.8 269.9 1150.9 271.8 Q 1150.9 273.7 1151.3 274.2 T 1151.7 274.6" fill="none" stroke="#8d857a" stroke-width="1.6" stroke-linecap="round"/>
<circle cx="1155.0" cy="274.9" r="2.8" fill="none" stroke="#8d857a" stroke-width="1.4" opacity="0.9" transform="rotate(-3 1155.0 274.9)"/>
<circle cx="1156.5" cy="276.1" r="2.8" fill="none" stroke="#8d857a" stroke-width="1.4" opacity="0.45" transform="rotate(2 1155.0 274.9)"/>
<line x1="1153.0" y1="272.9" x2="1146.5" y2="266.0" stroke="#8d857a" stroke-width="1.2" stroke-linecap="round"/>
<path d="M 1170.9 259.0 Q 1170.9 259.0 1172.1 260.6 Q 1173.3 262.3 1175.3 263.5 Q 1177.4 264.7 1177.9 266.4 Q 1178.4 268.0 1178.2 268.5 Q 1178.1 269.1 1178.2 271.5 Q 1178.3 273.8 1177.9 274.6 T 1177.5 275.3" fill="none" stroke="#8d857a" stroke-width="1.6" stroke-linecap="round"/>
<circle cx="1181.0" cy="274.9" r="2.8" fill="none" stroke="#8d857a" stroke-width="1.4" opacity="0.9" transform="rotate(0 1181.0 274.9)"/>
<circle cx="1182.5" cy="276.1" r="2.8" fill="none" stroke="#8d857a" stroke-width="1.4" opacity="0.45" transform="rotate(2 1181.0 274.9)"/>
<line x1="1178.9" y1="273.0" x2="1172.0" y2="266.5" stroke="#8d857a" stroke-width="1.2" stroke-linecap="round"/>
<path d="M 1196.0 261.2 Q 1196.0 261.2 1197.9 261.1 Q 1199.8 260.9 1200.9 263.6 Q 1202.1 266.2 1203.4 267.2 Q 1204.8 268.2 1203.9 269.1 Q 1203.0 270.0 1203.0 270.5 Q 1203.0 271.0 1203.8 273.4 T 1204.6 275.8" fill="none" stroke="#4a6b52" stroke-width="1.6" stroke-linecap="round"/>
<circle cx="1207.0" cy="274.9" r="9.6" fill="none" stroke="#4a6b52" stroke-width="1.4" opacity="0.9" transform="rotate(4 1207.0 274.9)"/>
<circle cx="1208.5" cy="276.1" r="9.6" fill="none" stroke="#4a6b52" stroke-width="1.4" opacity="0.45" transform="rotate(-1 1207.0 274.9)"/>
<circle cx="1207.0" cy="274.9" r="4.3" fill="#4a6b52" opacity="0.55"/>
<line x1="1200.4" y1="268.0" x2="1193.7" y2="261.2" stroke="#4a6b52" stroke-width="1.2" stroke-linecap="round"/>
<path d="M 1224.1 260.6 Q 1224.1 260.6 1225.2 262.5 Q 1226.3 264.4 1227.5 266.1 Q 1228.7 267.9 1229.3 270.6 Q 1229.9 273.2 1229.1 276.1 Q 1228.3 279.0 1229.5 280.5 Q 1230.8 281.9 1230.1 284.5 T 1229.4 287.1" fill="none" stroke="#4a6b52" stroke-width="1.6" stroke-linecap="round"/>
<circle cx="1233.0" cy="286.2" r="7.8" fill="none" stroke="#4a6b52" stroke-width="1.4" opacity="0.9" transform="rotate(-3 1233.0 286.2)"/>
<circle cx="1234.5" cy="287.4" r="7.8" fill="none" stroke="#4a6b52" stroke-width="1.4" opacity="0.45" transform="rotate(7 1233.0 286.2)"/>
<circle cx="1233.0" cy="286.2" r="3.5" fill="#4a6b52" opacity="0.55"/>
<line x1="1228.1" y1="280.1" x2="1222.1" y2="272.8" stroke="#4a6b52" stroke-width="1.2" stroke-linecap="round"/>
<line x1="1232.6" y1="278.4" x2="1232.1" y2="268.9" stroke="#4a6b52" stroke-width="1.2" stroke-linecap="round"/>
<path d="M 1247.7 259.3 Q 1247.7 259.3 1249.6 265.2 Q 1251.4 271.0 1253.2 275.1 Q 1255.0 279.2 1256.0 284.6 Q 1256.9 290.1 1256.8 295.4 Q 1256.6 300.8 1255.6 305.1 Q 1254.5 309.4 1255.7 314.4 T 1256.8 319.4" fill="none" stroke="#4a6b52" stroke-width="1.6" stroke-linecap="round"/>
<circle cx="1259.0" cy="320.1" r="5.2" fill="none" stroke="#4a6b52" stroke-width="1.4" opacity="0.9" transform="rotate(3 1259.0 320.1)"/>
<circle cx="1260.5" cy="321.3" r="5.2" fill="none" stroke="#4a6b52" stroke-width="1.4" opacity="0.45" transform="rotate(-5 1259.0 320.1)"/>
<circle cx="1259.0" cy="320.1" r="2.4" fill="#4a6b52" opacity="0.55"/>
<line x1="1255.6" y1="316.1" x2="1249.5" y2="308.9" stroke="#4a6b52" stroke-width="1.2" stroke-linecap="round"/>
<line x1="1259.5" y1="314.9" x2="1260.5" y2="305.5" stroke="#4a6b52" stroke-width="1.2" stroke-linecap="round"/>
<path d="M 1276.2 259.1 Q 1276.2 259.1 1277.0 260.7 Q 1277.8 262.3 1280.0 262.1 Q 1282.3 262.0 1282.8 262.8 Q 1283.2 263.7 1282.2 265.2 Q 1281.1 266.7 1282.1 266.5 Q 1283.1 266.2 1283.4 267.6 T 1283.6 269.0" fill="none" stroke="#a84b32" stroke-width="1.5" stroke-linecap="round"/>
<path d="M 1278.8 273.8 Q 1278.8 273.8 1279.9 275.1 Q 1280.9 276.4 1285.2 275.1 T 1289.5 273.9" fill="none" stroke="#a84b32" stroke-width="1.3" stroke-linecap="round" opacity="0.8"/>
<circle cx="1289.0" cy="273.2" r="4.6" fill="none" stroke="#a84b32" stroke-width="1.4" opacity="0.9" transform="rotate(-5 1289.0 273.2)"/>
<circle cx="1290.5" cy="274.4" r="4.6" fill="none" stroke="#a84b32" stroke-width="1.4" opacity="0.45" transform="rotate(7 1289.0 273.2)"/>
<line x1="1285.9" y1="269.8" x2="1279.4" y2="262.9" stroke="#a84b32" stroke-width="1.2" stroke-linecap="round"/>
<text x="1101.3663366336632" y="410" font-family="Georgia, 'Songti SC', serif" font-style="italic" font-size="13" fill="#b98c2c" text-anchor="start" opacity="0.85">第 9 次 · +7.3R · $74,052</text>
<text x="620" y="470" font-family="Georgia, 'Songti SC', serif" font-style="italic" font-size="13" fill="#2f2b26" text-anchor="start" opacity="0.65">同一个动作：被打出去，再打回来。趋势还在，所以它叫「坚持」。</text>
<text x="620" y="540" font-family="Georgia, 'Songti SC', serif" font-style="italic" font-size="15" fill="#a84b32" text-anchor="start" opacity="0.85">BABA — 5 次进攻，全败。−$54,418。持仓最长的三笔（102 / 99 / 93 天）都是它。</text>
<path d="M 642.9 599.9 Q 642.9 599.9 699.1 598.2 Q 755.3 596.5 909.6 598.8 Q 1063.9 601.1 1084.2 599.7 Q 1104.6 598.3 1125.9 599.6 T 1147.3 600.9" fill="none" stroke="#a84b32" stroke-width="0.9" opacity="0.45"/>
<path d="M 644.1 599.2 Q 644.1 599.2 645.2 600.9 Q 646.4 602.5 647.5 604.4 Q 648.6 606.3 648.8 607.8 Q 649.0 609.3 649.0 609.4 Q 648.9 609.6 649.8 611.1 Q 650.7 612.6 650.4 614.5 T 650.1 616.5" fill="none" stroke="#8d857a" stroke-width="1.6" stroke-linecap="round"/>
<circle cx="653.8" cy="616.5" r="3.8" fill="none" stroke="#8d857a" stroke-width="1.4" opacity="0.9" transform="rotate(4 653.8 616.5)"/>
<circle cx="655.3" cy="617.7" r="3.8" fill="none" stroke="#8d857a" stroke-width="1.4" opacity="0.45" transform="rotate(-4 653.8 616.5)"/>
<line x1="651.1" y1="613.8" x2="644.6" y2="606.9" stroke="#8d857a" stroke-width="1.2" stroke-linecap="round"/>
<line x1="653.6" y1="612.7" x2="653.3" y2="603.2" stroke="#8d857a" stroke-width="1.2" stroke-linecap="round"/>
<line x1="656.1" y1="613.5" x2="661.9" y2="606.0" stroke="#8d857a" stroke-width="1.2" stroke-linecap="round"/>
<path d="M 754.4 601.6 Q 754.4 601.6 755.7 602.1 Q 757.1 602.5 758.8 603.8 Q 760.5 605.1 761.4 606.3 Q 762.3 607.5 761.2 608.9 Q 760.2 610.2 760.5 612.5 Q 760.8 614.7 761.9 616.1 T 762.9 617.6" fill="none" stroke="#8d857a" stroke-width="1.6" stroke-linecap="round"/>
<circle cx="764.7" cy="616.5" r="3.8" fill="none" stroke="#8d857a" stroke-width="1.4" opacity="0.9" transform="rotate(4 764.7 616.5)"/>
<circle cx="766.2" cy="617.7" r="3.8" fill="none" stroke="#8d857a" stroke-width="1.4" opacity="0.45" transform="rotate(-5 764.7 616.5)"/>
<line x1="762.3" y1="613.5" x2="756.5" y2="606.1" stroke="#8d857a" stroke-width="1.2" stroke-linecap="round"/>
<line x1="765.0" y1="612.7" x2="765.8" y2="603.3" stroke="#8d857a" stroke-width="1.2" stroke-linecap="round"/>
<line x1="767.4" y1="613.9" x2="774.3" y2="607.4" stroke="#8d857a" stroke-width="1.2" stroke-linecap="round"/>
<path d="M 1063.7 600.4 Q 1063.7 600.4 1066.1 607.8 Q 1068.5 615.1 1069.3 624.4 Q 1070.0 633.7 1070.1 640.6 Q 1070.1 647.5 1069.6 657.0 Q 1069.0 666.5 1069.6 673.5 Q 1070.2 680.4 1070.9 689.4 T 1071.6 698.3" fill="none" stroke="#a84b32" stroke-width="1.5" stroke-linecap="round"/>
<path d="M 1069.9 702.1 Q 1069.9 702.1 1069.5 703.4 Q 1069.1 704.7 1073.3 722.8 T 1077.6 740.9" fill="none" stroke="#a84b32" stroke-width="1.3" stroke-linecap="round" opacity="0.8"/>
<circle cx="1077.6" cy="742.4" r="8.9" fill="none" stroke="#a84b32" stroke-width="1.4" opacity="0.9" transform="rotate(7 1077.6 742.4)"/>
<circle cx="1079.1" cy="743.6" r="8.9" fill="none" stroke="#a84b32" stroke-width="1.4" opacity="0.45" transform="rotate(3 1077.6 742.4)"/>
<line x1="1071.6" y1="735.9" x2="1065.1" y2="728.9" stroke="#a84b32" stroke-width="1.2" stroke-linecap="round"/>
<line x1="1076.9" y1="733.6" x2="1076.2" y2="724.1" stroke="#a84b32" stroke-width="1.2" stroke-linecap="round"/>
<path d="M 1104.9 599.3 Q 1104.9 599.3 1107.3 607.6 Q 1109.8 616.0 1110.3 623.2 Q 1110.8 630.4 1111.1 639.3 Q 1111.4 648.2 1111.4 656.5 Q 1111.5 664.8 1111.8 671.6 Q 1112.1 678.4 1112.8 686.5 T 1113.4 694.5" fill="none" stroke="#a84b32" stroke-width="1.5" stroke-linecap="round"/>
<path d="M 1109.5 699.0 Q 1109.5 699.0 1111.2 700.3 Q 1112.9 701.6 1115.9 720.0 T 1119.0 738.4" fill="none" stroke="#a84b32" stroke-width="1.3" stroke-linecap="round" opacity="0.8"/>
<circle cx="1119.6" cy="738.5" r="6.7" fill="none" stroke="#a84b32" stroke-width="1.4" opacity="0.9" transform="rotate(8 1119.6 738.5)"/>
<circle cx="1121.1" cy="739.7" r="6.7" fill="none" stroke="#a84b32" stroke-width="1.4" opacity="0.45" transform="rotate(1 1119.6 738.5)"/>
<line x1="1115.0" y1="733.6" x2="1108.6" y2="726.6" stroke="#a84b32" stroke-width="1.2" stroke-linecap="round"/>
<path d="M 1146.3 600.1 Q 1146.3 600.1 1148.8 608.2 Q 1151.3 616.3 1152.4 623.7 Q 1153.4 631.0 1154.4 638.4 Q 1155.4 645.8 1155.5 653.2 Q 1155.6 660.6 1155.4 667.5 Q 1155.3 674.4 1154.9 682.8 T 1154.6 691.2" fill="none" stroke="#a84b32" stroke-width="1.5" stroke-linecap="round"/>
<path d="M 1154.1 695.4 Q 1154.1 695.4 1153.4 696.3 Q 1152.7 697.2 1157.6 713.4 T 1162.5 729.6" fill="none" stroke="#a84b32" stroke-width="1.3" stroke-linecap="round" opacity="0.8"/>
<circle cx="1161.6" cy="730.8" r="10.9" fill="none" stroke="#a84b32" stroke-width="1.4" opacity="0.9" transform="rotate(6 1161.6 730.8)"/>
<circle cx="1163.1" cy="732.0" r="10.9" fill="none" stroke="#a84b32" stroke-width="1.4" opacity="0.45" transform="rotate(-1 1161.6 730.8)"/>
<line x1="1154.9" y1="722.1" x2="1149.2" y2="714.5" stroke="#a84b32" stroke-width="1.2" stroke-linecap="round"/>
<text x="620" y="840" font-family="Georgia, 'Songti SC', serif" font-style="italic" font-size="13" fill="#2f2b26" text-anchor="start" opacity="0.65">同一个动作。论点已经坏了，所以它叫「固执」。入场那一刻，两者无法区分。</text>
<line x1="620" y1="850" x2="620" y2="858" stroke="#2f2b26" opacity="0.4"/>
<text x="620.0" y="874" font-family="Georgia, 'Songti SC', serif" font-style="normal" font-size="12" fill="#2f2b26" text-anchor="middle" opacity="0.5">1月</text>
<line x1="743" y1="850" x2="743" y2="858" stroke="#2f2b26" opacity="0.4"/>
<text x="742.7722772277227" y="874" font-family="Georgia, 'Songti SC', serif" font-style="normal" font-size="12" fill="#2f2b26" text-anchor="middle" opacity="0.5">2月</text>
<line x1="854" y1="850" x2="854" y2="858" stroke="#2f2b26" opacity="0.4"/>
<text x="853.6633663366337" y="874" font-family="Georgia, 'Songti SC', serif" font-style="normal" font-size="12" fill="#2f2b26" text-anchor="middle" opacity="0.5">3月</text>
<line x1="976" y1="850" x2="976" y2="858" stroke="#2f2b26" opacity="0.4"/>
<text x="976.4356435643565" y="874" font-family="Georgia, 'Songti SC', serif" font-style="normal" font-size="12" fill="#2f2b26" text-anchor="middle" opacity="0.5">4月</text>
<line x1="1095" y1="850" x2="1095" y2="858" stroke="#2f2b26" opacity="0.4"/>
<text x="1095.2475247524753" y="874" font-family="Georgia, 'Songti SC', serif" font-style="normal" font-size="12" fill="#2f2b26" text-anchor="middle" opacity="0.5">5月</text>
<line x1="1218" y1="850" x2="1218" y2="858" stroke="#2f2b26" opacity="0.4"/>
<text x="1218.019801980198" y="874" font-family="Georgia, 'Songti SC', serif" font-style="normal" font-size="12" fill="#2f2b26" text-anchor="middle" opacity="0.5">6月</text>
<line x1="1337" y1="850" x2="1337" y2="858" stroke="#2f2b26" opacity="0.4"/>
<text x="1336.8316831683169" y="874" font-family="Georgia, 'Songti SC', serif" font-style="normal" font-size="12" fill="#2f2b26" text-anchor="middle" opacity="0.5">7月</text>
<line x1="620" y1="850" x2="1420" y2="850" stroke="#2f2b26" stroke-width="0.7" opacity="0.35"/>
<text x="60" y="910" font-family="Georgia, 'Songti SC', serif" font-style="italic" font-size="12" fill="#2f2b26" text-anchor="start" opacity="0.5">Fluxus DataArt · sketch 00 · 数据：真实交易记录，无一虚构 · 胜率 39.9%，净利 +90.5%</text>
</svg>